<svg width="1022" height="215" viewBox="0 0 1022 215" fill="none" xmlns="http://www.w3.org/2000/svg">
    <g clip-path="url(#clip0_45_23)">
        <path d="M67.8209 53.5418L48.1965 54.7502C47.8612 53.0717 47.1398 51.562 46.0334 50.2201C44.9258 48.844 43.4676 47.7537 41.6551 46.9481C39.878 46.1094 37.7479 45.6889 35.2659 45.6889C31.9444 45.6889 29.1436 46.3941 26.8624 47.8033C24.5812 49.1795 23.4405 51.0258 23.4405 53.341C23.4405 55.1861 24.1785 56.7466 25.6545 58.0223C27.1304 59.2969 29.6632 60.321 33.2527 61.0924L47.2413 63.912C54.7545 65.4547 60.3573 67.9389 64.0472 71.361C67.7371 74.7842 69.5814 79.2813 69.5814 84.852C69.5814 89.9196 68.089 94.3658 65.1028 98.1919C62.1509 102.017 58.0926 105.004 52.9267 107.152C47.7939 109.266 41.8735 110.322 35.1644 110.322C24.9342 110.322 16.7822 108.191 10.7106 103.929C4.6722 99.6342 1.13344 93.7953 0.0943604 86.4125L21.177 85.3045C21.8134 88.4253 23.3567 90.8091 25.8056 92.4534C28.2545 94.0634 31.3906 94.869 35.2152 94.869C38.9724 94.869 41.9916 94.1473 44.2717 92.705C46.5871 91.2284 47.7608 89.3325 47.7939 87.0161C47.7608 85.0706 46.939 83.4759 45.3285 82.2344C43.7191 80.9586 41.2359 79.9865 37.8813 79.3143L24.4973 76.6471C16.9498 75.1363 11.3317 72.5198 7.64184 68.7941C3.985 65.0696 2.15716 60.321 2.15716 54.5482C2.15716 49.5823 3.49852 45.3038 6.18241 41.7128C8.89936 38.1218 12.7062 35.3529 17.604 33.4074C22.5349 31.4607 28.3053 30.4874 34.9129 30.4874C44.6743 30.4874 52.3564 32.551 57.9579 36.6795C63.5938 40.8068 66.881 46.4272 67.8209 53.5418ZM104.514 64.1128V108.813H83.0788V31.4938H103.507V45.136H104.413C106.124 40.639 108.992 37.0823 113.017 34.4646C117.042 31.8127 121.924 30.4874 127.66 30.4874C133.027 30.4874 137.706 31.6627 141.698 34.011C145.69 36.3605 148.793 39.7165 151.007 44.0788C153.221 48.4081 154.328 53.5761 154.328 59.5827V108.813H132.893V63.4076C132.926 58.6767 131.718 54.9853 129.269 52.3346C126.822 49.6496 123.449 48.3065 119.156 48.3065C116.271 48.3065 113.722 48.9279 111.508 50.1693C109.327 51.4108 107.616 53.2229 106.375 55.6055C105.169 57.955 104.548 60.7912 104.514 64.1128ZM206.141 110.322C198.225 110.322 191.416 108.645 185.712 105.289C180.044 101.9 175.683 97.2008 172.631 91.1942C169.612 85.1875 168.102 78.2748 168.102 70.455C168.102 62.5359 169.628 55.5889 172.68 49.6153C175.767 43.6087 180.144 38.9274 185.814 35.5715C191.483 32.1825 198.225 30.4874 206.041 30.4874C212.783 30.4874 218.687 31.7123 223.752 34.1622C228.818 36.6121 232.826 40.0519 235.778 44.4816C238.73 48.9113 240.357 54.1124 240.658 60.0859H220.432C219.861 56.2268 218.351 53.1225 215.902 50.773C213.488 48.3904 210.317 47.1997 206.392 47.1997C203.072 47.1997 200.171 48.1057 197.688 49.9177C195.239 51.6967 193.327 54.2966 191.952 57.7199C190.577 61.1432 189.889 65.287 189.889 70.1537C189.889 75.0866 190.56 79.2813 191.902 82.7376C193.278 86.1939 195.206 88.8281 197.688 90.6402C200.171 92.4534 203.072 93.3594 206.392 93.3594C208.841 93.3594 211.039 92.855 212.985 91.8486C214.964 90.8421 216.591 89.3821 217.865 87.4697C219.173 85.523 220.029 83.1912 220.432 80.4731H240.658C240.323 86.3794 238.714 91.5804 235.828 96.0774C232.977 100.54 229.036 104.031 224.004 106.547C218.972 109.064 213.018 110.322 206.141 110.322ZM295.944 31.4938V47.6025H248.244V31.4938H295.944ZM259.163 108.813V25.9068C259.163 20.3026 260.253 15.6549 262.433 11.9635C264.647 8.27206 267.666 5.50345 271.491 3.65775C275.315 1.81205 279.659 0.889252 284.523 0.889252C287.81 0.889252 290.813 1.14086 293.53 1.64431C296.28 2.14764 298.326 2.60065 299.669 3.00334L295.844 19.1113C295.006 18.8428 293.965 18.5912 292.724 18.3563C291.516 18.1213 290.276 18.0039 289 18.0039C285.848 18.0039 283.65 18.7422 282.409 20.2188C281.168 21.6618 280.547 23.692 280.547 26.3093V108.813H259.163Z" fill="#4169E1"/>
        <path d="M341.191 110.322C333.276 110.322 326.466 108.645 320.763 105.289C315.094 101.9 310.734 97.2008 307.681 91.1942C304.662 85.1875 303.153 78.2748 303.153 70.4549C303.153 62.5358 304.679 55.5889 307.731 49.6153C310.817 43.6087 315.194 38.9274 320.864 35.5714C326.533 32.1824 333.276 30.4874 341.091 30.4874C347.833 30.4874 353.737 31.7123 358.803 34.1622C363.868 36.6121 367.877 40.0519 370.829 44.4816C373.781 48.9113 375.408 54.1124 375.709 60.0859H355.482C354.912 56.2268 353.402 53.1225 350.953 50.773C348.538 48.3904 345.368 47.1997 341.444 47.1997C338.123 47.1997 335.221 48.1057 332.738 49.9177C330.289 51.6967 328.378 54.2966 327.002 57.7199C325.628 61.1432 324.939 65.287 324.939 70.1537C324.939 75.0866 325.61 79.2812 326.953 82.7376C328.328 86.1939 330.256 88.8281 332.738 90.6402C335.221 92.4534 338.123 93.3594 341.444 93.3594C343.892 93.3594 346.089 92.855 348.035 91.8486C350.014 90.8421 351.641 89.3821 352.915 87.4697C354.224 85.523 355.08 83.1912 355.482 80.4731H375.709C375.374 86.3794 373.764 91.5804 370.878 96.0774C368.028 100.54 364.087 104.031 359.054 106.547C354.023 109.064 348.068 110.322 341.191 110.322ZM424.353 110.322C416.537 110.322 409.778 108.661 404.076 105.34C398.407 101.984 394.029 97.3189 390.943 91.3454C387.857 85.3387 386.313 78.3752 386.313 70.4549C386.313 62.4685 387.857 55.4885 390.943 49.5149C394.029 43.5083 398.407 38.8435 404.076 35.5218C409.778 32.1659 416.537 30.4874 424.353 30.4874C432.169 30.4874 438.912 32.1659 444.581 35.5218C450.283 38.8435 454.678 43.5083 457.764 49.5149C460.849 55.4885 462.393 62.4685 462.393 70.4549C462.393 78.3752 460.849 85.3387 457.764 91.3454C454.678 97.3189 450.283 101.984 444.581 105.34C438.912 108.661 432.169 110.322 424.353 110.322ZM424.453 93.7114C428.01 93.7114 430.978 92.705 433.36 90.6909C435.742 88.6438 437.536 85.8585 438.744 82.3348C439.985 78.8111 440.605 74.8008 440.605 70.3049C440.605 65.8079 439.985 61.7976 438.744 58.2739C437.536 54.7502 435.742 51.9648 433.36 49.9177C430.978 47.8706 428.01 46.8477 424.453 46.8477C420.865 46.8477 417.846 47.8706 415.397 49.9177C412.981 51.9648 411.153 54.7502 409.912 58.2739C408.704 61.7976 408.101 65.8079 408.101 70.3049C408.101 74.8008 408.704 78.8111 409.912 82.3348C411.153 85.8585 412.981 88.6438 415.397 90.6909C417.846 92.705 420.865 93.7114 424.453 93.7114ZM497.765 64.1128V108.813H476.33V31.4938H496.759V45.136H497.665C499.376 40.639 502.244 37.0823 506.269 34.4646C510.294 31.8127 515.175 30.4874 520.912 30.4874C526.278 30.4874 530.958 31.6627 534.95 34.011C538.942 36.3605 542.044 39.7165 544.258 44.0788C546.472 48.4081 547.579 53.5761 547.579 59.5827V108.813H526.145V63.4076C526.178 58.6767 524.97 54.9853 522.521 52.3346C520.072 49.6496 516.701 48.3065 512.408 48.3065C509.523 48.3065 506.974 48.9278 504.76 50.1693C502.579 51.4108 500.868 53.2229 499.627 55.6055C498.419 57.955 497.799 60.7911 497.765 64.1128ZM585.908 64.1128V108.813H564.473V31.4938H584.902V45.136H585.808C587.518 40.639 590.386 37.0823 594.412 34.4646C598.437 31.8127 603.317 30.4874 609.054 30.4874C614.421 30.4874 619.101 31.6627 623.092 34.011C627.084 36.3605 630.187 39.7165 632.401 44.0788C634.615 48.4081 635.721 53.5761 635.721 59.5827V108.813H614.287V63.4076C614.32 58.6767 613.113 54.9853 610.664 52.3346C608.215 49.6496 604.844 48.3065 600.55 48.3065C597.665 48.3065 595.116 48.9278 592.902 50.1693C590.722 51.4108 589.011 53.2229 587.77 55.6055C586.562 57.955 585.941 60.7911 585.908 64.1128ZM687.837 110.322C679.887 110.322 673.044 108.712 667.308 105.491C661.606 102.235 657.211 97.6379 654.125 91.6974C651.039 85.725 649.496 78.6599 649.496 70.5057C649.496 62.5524 651.039 55.5724 654.125 49.5657C657.211 43.5591 661.555 38.8766 667.157 35.5218C672.793 32.1659 679.402 30.4874 686.982 30.4874C692.081 30.4874 696.827 31.3095 701.222 32.9538C705.65 34.565 709.508 36.9984 712.795 40.2527C716.115 43.5083 718.699 47.6025 720.543 52.5354C722.389 57.4352 723.311 63.1737 723.311 69.7509V75.6406H658.05V62.3516H703.134C703.134 59.2638 702.463 56.5292 701.121 54.1466C699.779 51.764 697.917 49.9012 695.536 48.5581C693.188 47.1831 690.454 46.4945 687.334 46.4945C684.081 46.4945 681.195 47.2505 678.68 48.7601C676.197 50.2367 674.252 52.233 672.844 54.7502C671.434 57.2332 670.713 60.0021 670.679 63.0556V75.6903C670.679 79.5163 671.384 82.8215 672.793 85.6068C674.236 88.3922 676.264 90.5397 678.881 92.0506C681.497 93.5602 684.6 94.315 688.19 94.315C690.572 94.315 692.751 93.9795 694.73 93.3086C696.71 92.6376 698.404 91.6312 699.812 90.2881C701.222 88.9462 702.296 87.3019 703.033 85.3552L722.859 86.6641C721.851 91.4292 719.789 95.5908 716.669 99.1475C713.582 102.671 709.591 105.423 704.694 107.403C699.83 109.35 694.211 110.322 687.837 110.322ZM772.218 110.322C764.302 110.322 757.493 108.645 751.79 105.289C746.121 101.9 741.76 97.2008 738.708 91.1942C735.689 85.1875 734.18 78.2748 734.18 70.4549C734.18 62.5358 735.705 55.5889 738.758 49.6153C741.844 43.6087 746.221 38.9274 751.891 35.5714C757.56 32.1824 764.302 30.4874 772.118 30.4874C778.86 30.4874 784.764 31.7123 789.829 34.1622C794.895 36.6121 798.904 40.0519 801.856 44.4816C804.808 48.9113 806.435 54.1124 806.736 60.0859H786.509C785.939 56.2268 784.429 53.1225 781.981 50.773C779.565 48.3904 776.395 47.1997 772.471 47.1997C769.149 47.1997 766.248 48.1057 763.765 49.9177C761.317 51.6967 759.405 54.2966 758.029 57.7199C756.655 61.1432 755.966 65.287 755.966 70.1537C755.966 75.0866 756.637 79.2812 757.979 82.7376C759.355 86.1939 761.283 88.8281 763.765 90.6402C766.248 92.4534 769.149 93.3594 772.471 93.3594C774.919 93.3594 777.116 92.855 779.062 91.8486C781.041 90.8421 782.668 89.3821 783.942 87.4697C785.25 85.523 786.106 83.1912 786.509 80.4731H806.736C806.4 86.3794 804.791 91.5804 801.906 96.0774C799.055 100.54 795.113 104.031 790.081 106.547C785.05 109.064 779.095 110.322 772.218 110.322ZM861.569 31.4938V47.6025H815.026V31.4938H861.569ZM825.593 12.9701H847.027V85.0528C847.027 87.0326 847.329 88.5765 847.933 89.6845C848.537 90.7583 849.376 91.5131 850.449 91.949C851.557 92.386 852.831 92.6034 854.273 92.6034C855.279 92.6034 856.285 92.5195 857.291 92.3518C858.299 92.151 859.07 91.9998 859.607 91.8994L862.978 107.856C861.905 108.191 860.395 108.577 858.45 109.013C856.504 109.483 854.139 109.769 851.355 109.87C846.189 110.071 841.66 109.383 837.769 107.806C833.911 106.228 830.91 103.779 828.763 100.456C826.615 97.1347 825.56 92.9389 825.593 87.8725V12.9701Z" fill="#707070"/>
        <path d="M888.061 110.121C884.74 110.121 881.888 108.947 879.506 106.598C877.159 104.215 875.984 101.362 875.984 98.0407C875.984 94.7521 877.159 91.9324 879.506 89.5841C881.888 87.2346 884.74 86.0605 888.061 86.0605C891.281 86.0605 894.098 87.2346 896.514 89.5841C898.929 91.9324 900.137 94.7521 900.137 98.0407C900.137 100.256 899.567 102.285 898.426 104.131C897.32 105.943 895.86 107.403 894.049 108.51C892.238 109.584 890.241 110.121 888.061 110.121ZM917.735 31.4938H939.175V112.639C939.175 118.611 937.995 123.443 935.645 127.135C933.295 130.826 929.93 133.528 925.534 135.239C921.173 136.951 915.957 137.806 909.885 137.806C909.147 137.806 908.444 137.79 907.773 137.757C907.068 137.757 906.33 137.74 905.559 137.706V120.944C906.129 120.977 906.632 120.994 907.068 120.994C907.471 121.028 907.906 121.044 908.376 121.044C911.831 121.044 914.247 120.306 915.621 118.83C917.031 117.387 917.735 115.205 917.735 112.285V31.4938ZM928.407 21.5276C925.249 21.5276 922.532 20.4705 920.251 18.3563C917.97 16.2085 916.829 13.6413 916.829 10.6546C916.829 7.70152 917.97 5.16786 920.251 3.05377C922.532 0.906026 925.249 -0.167847 928.407 -0.167847C931.619 -0.167847 934.358 0.906026 936.601 3.05377C938.88 5.16786 940.026 7.70152 940.026 10.6546C940.026 13.6413 938.88 16.2085 936.601 18.3563C934.358 20.4705 931.619 21.5276 928.407 21.5276ZM1020.65 53.5418L1001.02 54.7502C1000.68 53.0717 999.961 51.562 998.863 50.2201C997.753 48.844 996.289 47.7537 994.483 46.9481C992.7 46.1094 990.574 45.6889 988.095 45.6889C984.765 45.6889 981.967 46.3941 979.688 47.8033C977.409 49.1795 976.263 51.0258 976.263 53.341C976.263 55.1861 977.007 56.7466 978.483 58.0223C979.959 59.2969 982.486 60.321 986.076 61.0924L1000.07 63.912C1007.58 65.4547 1013.19 67.9389 1016.87 71.361C1020.57 74.7842 1022.41 79.2813 1022.41 84.852C1022.41 89.9196 1020.91 94.3658 1017.93 98.1919C1014.98 102.017 1010.92 105.004 1005.75 107.152C1000.62 109.266 994.695 110.322 987.988 110.322C977.763 110.322 969.604 108.191 963.535 103.929C957.501 99.6342 953.959 93.7953 952.92 86.4125L973.996 85.3045C974.634 88.4253 976.181 90.8091 978.637 92.4534C981.081 94.0634 984.222 94.869 988.036 94.869C991.802 94.869 994.813 94.1473 997.092 92.705C999.407 91.2284 1000.59 89.3325 1000.62 87.0161C1000.59 85.0706 999.761 83.4759 998.155 82.2344C996.549 80.9586 994.058 79.9865 990.704 79.3143L977.326 76.6471C969.781 75.1363 964.16 72.5198 960.465 68.7941C956.816 65.0696 954.986 60.321 954.986 54.5483C954.986 49.5823 956.32 45.3038 959.012 41.7128C961.728 38.1218 965.53 35.3529 970.43 33.4074C975.366 31.4607 981.128 30.4874 987.741 30.4874C997.505 30.4874 1005.18 32.551 1010.79 36.6795C1016.42 40.8068 1019.7 46.4272 1020.65 53.5418Z" fill="#C49102"/>
        <path d="M544.019 132.438H402.327C379.503 132.438 361 150.948 361 173.781C361 196.615 379.503 215.125 402.327 215.125H544.019C566.843 215.125 585.346 196.615 585.346 173.781C585.346 150.948 566.843 132.438 544.019 132.438Z" fill="#4169E1"/>
        <path d="M561.731 173.781C561.731 157.472 548.515 144.25 532.212 144.25C515.909 144.25 502.692 157.472 502.692 173.781C502.692 190.091 515.909 203.312 532.212 203.312C548.515 203.312 561.731 190.091 561.731 173.781Z" fill="#C49102"/>
        <path d="M679.808 173.781C679.808 150.948 661.305 132.438 638.481 132.438C615.657 132.438 597.154 150.948 597.154 173.781C597.154 196.615 615.657 215.125 638.481 215.125C661.305 215.125 679.808 196.615 679.808 173.781Z" fill="#707070"/>
    </g>
    <defs>
        <clipPath id="clip0_45_23">
            <rect width="1022" height="215" fill="white"/>
        </clipPath>
    </defs>
</svg>
